<svg width="34" height="34" viewBox="0 0 34 34" fill="none" xmlns="http://www.w3.org/2000/svg">
<g clip-path="url(#clip0_2_15)">
<path d="M32.9554 24.4394C32.8681 24.2932 32.3279 23.1194 29.7285 20.7068C27.0073 18.1806 27.3728 18.5908 30.6505 14.2226C32.6467 11.5623 33.4448 9.93764 33.195 9.24312C32.9574 8.58108 31.4892 8.75573 31.4892 8.75573L26.6072 8.78416C26.6072 8.78416 26.2457 8.73542 25.9756 8.89585C25.7137 9.05425 25.5451 9.41979 25.5451 9.41979C25.5451 9.41979 24.7714 11.479 23.7398 13.2295C21.5648 16.9235 20.6936 17.1185 20.3382 16.889C19.5117 16.3549 19.7188 14.7404 19.7188 13.5951C19.7188 10.0148 20.261 8.52219 18.6608 8.13634C18.1287 8.0084 17.7388 7.92311 16.3802 7.9089C14.6378 7.89062 13.1615 7.91499 12.3268 8.32318C11.7704 8.5953 11.3419 9.2025 11.6039 9.23702C11.9267 9.27967 12.6578 9.43401 13.0457 9.96201C13.5473 10.6423 13.529 12.1735 13.529 12.1735C13.529 12.1735 13.8174 16.3874 12.8568 16.9113C12.1968 17.2708 11.2931 16.5377 9.35375 13.1849C8.36071 11.4688 7.60932 9.57007 7.60932 9.57007C7.60932 9.57007 7.46514 9.21672 7.20723 9.02785C6.89449 8.79838 6.45584 8.72527 6.45584 8.72527L1.81349 8.7537C1.81349 8.7537 1.11694 8.77401 0.861059 9.07659C0.633612 9.34669 0.842782 9.90312 0.842782 9.90312C0.842782 9.90312 4.47787 18.406 8.59222 22.6929C12.3674 26.6225 16.6524 26.3646 16.6524 26.3646H18.5938C18.5938 26.3646 19.1807 26.2996 19.4792 25.9767C19.7554 25.6802 19.7452 25.1238 19.7452 25.1238C19.7452 25.1238 19.7066 22.5183 20.917 22.1345C22.109 21.7568 23.6403 24.6526 25.2628 25.7675C26.4894 26.6103 27.4216 26.4255 27.4216 26.4255L31.7613 26.3646C31.7613 26.3646 34.0317 26.2245 32.9554 24.4394Z" fill="#373737"/>
</g>
<defs>
<clipPath id="clip0_2_15">
<rect width="32.49" height="32.49" fill="white" transform="translate(0.755005 0.928711)"/>
</clipPath>
</defs>
</svg>
