<svg width="33" height="34" viewBox="0 0 33 34" fill="none" xmlns="http://www.w3.org/2000/svg">
<g clip-path="url(#clip0_2_19)">
<path d="M22.6019 0.928711H10.4181C4.81158 0.928711 0.265015 5.47528 0.265015 11.0818V23.2656C0.265015 28.8721 4.81158 33.4187 10.4181 33.4187H22.6019C28.2084 33.4187 32.755 28.8721 32.755 23.2656V11.0818C32.755 5.47528 28.2084 0.928711 22.6019 0.928711ZM29.7091 23.2656C29.7091 27.1847 26.521 30.3728 22.6019 30.3728H10.4181C6.49903 30.3728 3.31095 27.1847 3.31095 23.2656V11.0818C3.31095 7.16273 6.49903 3.97465 10.4181 3.97465H22.6019C26.521 3.97465 29.7091 7.16273 29.7091 11.0818V23.2656Z" fill="#373737"/>
<path d="M16.5101 9.05127C12.0244 9.05127 8.38757 12.6881 8.38757 17.1738C8.38757 21.6594 12.0244 25.2963 16.5101 25.2963C20.9957 25.2963 24.6326 21.6594 24.6326 17.1738C24.6326 12.6881 20.9957 9.05127 16.5101 9.05127ZM16.5101 22.2503C13.7119 22.2503 11.4335 19.972 11.4335 17.1738C11.4335 14.3735 13.7119 12.0972 16.5101 12.0972C19.3083 12.0972 21.5866 14.3735 21.5866 17.1738C21.5866 19.972 19.3083 22.2503 16.5101 22.2503Z" fill="#373737"/>
<path d="M25.2417 9.52438C25.8395 9.52438 26.3241 9.03981 26.3241 8.44206C26.3241 7.84431 25.8395 7.35974 25.2417 7.35974C24.644 7.35974 24.1594 7.84431 24.1594 8.44206C24.1594 9.03981 24.644 9.52438 25.2417 9.52438Z" fill="#373737"/>
</g>
<defs>
<clipPath id="clip0_2_19">
<rect width="32.49" height="32.49" fill="white" transform="translate(0.265015 0.928711)"/>
</clipPath>
</defs>
</svg>
